<?xml version="1.0" standalone="no"?>
<!DOCTYPE svg PUBLIC "-//W3C//DTD SVG 20010904//EN"
 "http://www.w3.org/TR/2001/REC-SVG-20010904/DTD/svg10.dtd">
<svg version="1.0" xmlns="http://www.w3.org/2000/svg"
 width="333.000000pt" height="272.000000pt" viewBox="0 0 333.000000 272.000000"
 preserveAspectRatio="xMidYMid meet">

<g transform="translate(0.000000,272.000000) scale(0.100000,-0.100000)"
fill="#000000" stroke="none">
<path d="M1569 2508 c-79 -72 -189 -172 -244 -222 -55 -50 -127 -116 -161
-146 -34 -30 -61 -59 -60 -64 1 -5 25 -29 53 -53 l50 -43 129 116 c71 65 172
156 224 204 52 48 109 99 126 114 l32 26 174 -158 c96 -86 250 -226 344 -311
93 -85 179 -163 191 -174 l22 -19 55 48 c52 45 55 49 38 63 -27 25 -225 205
-352 321 -63 58 -158 143 -210 190 -52 47 -122 110 -155 142 -33 31 -72 65
-86 76 l-25 21 -145 -131z"/>
<path d="M650 1511 l0 -751 -290 0 -290 0 0 -70 0 -70 364 2 365 3 3 647 c2
357 5 648 8 648 3 0 31 -23 63 -51 l57 -51 0 -604 0 -604 75 0 75 0 2 537 3
537 60 -55 c32 -30 87 -79 121 -109 l62 -55 1 -427 1 -428 390 0 390 0 0 223
1 222 127 113 127 113 3 -335 2 -336 75 0 74 0 3 403 3 402 50 48 50 48 3
-445 2 -446 314 0 314 0 7 61 c4 33 3 65 -2 70 -5 5 -114 10 -243 11 l-235 3
-3 538 c-1 295 -5 537 -8 537 -6 0 -672 -597 -756 -679 l-58 -55 0 -178 0
-178 -240 0 -240 0 -1 388 -1 387 -384 345 c-211 190 -398 356 -414 369 l-30
24 0 -752z"/>
<path d="M1530 2010 l0 -60 70 0 70 0 0 60 0 60 -70 0 -70 0 0 -60z"/>
<path d="M1770 2010 l0 -60 70 0 70 0 0 60 0 60 -70 0 -70 0 0 -60z"/>
<path d="M1530 1805 l0 -66 68 3 67 3 3 63 3 62 -71 0 -70 0 0 -65z"/>
<path d="M1770 1805 l0 -65 70 0 70 0 0 65 0 65 -70 0 -70 0 0 -65z"/>
<path d="M984 409 c-19 -22 -19 -22 3 -10 24 12 39 31 25 31 -5 0 -17 -10 -28
-21z"/>
<path d="M2594 409 c-19 -22 -19 -22 4 -10 17 9 27 9 45 0 22 -12 22 -12 3 10
-11 11 -22 21 -26 21 -4 0 -15 -10 -26 -21z"/>
<path d="M267 354 c-4 -4 -7 -76 -7 -161 l0 -153 30 0 30 0 0 135 0 135 65 0
65 0 0 -60 0 -60 -40 0 c-34 0 -42 -4 -50 -26 -6 -14 -10 -27 -10 -30 0 -8
135 -4 148 4 9 6 12 36 10 113 l-3 104 -116 3 c-63 1 -118 -1 -122 -4z"/>
<path d="M560 200 l0 -160 30 0 30 0 0 65 0 65 70 0 70 0 0 -65 0 -65 30 0 30
0 0 160 0 160 -30 0 -30 0 0 -65 0 -65 -70 0 -70 0 0 65 0 65 -30 0 -30 0 0
-160z"/>
<path d="M870 212 c0 -102 4 -152 12 -160 15 -15 191 -16 219 -2 17 10 19 23
19 160 l0 150 -30 0 -30 0 0 -130 0 -131 -67 3 -68 3 -3 128 -3 127 -24 0 -25
0 0 -148z"/>
<path d="M1332 348 c-8 -8 -12 -55 -12 -144 0 -168 -3 -164 130 -164 123 0
130 5 130 99 0 39 -5 72 -12 79 -7 7 -35 12 -64 12 -49 0 -53 -2 -63 -30 l-10
-30 45 0 c44 0 44 0 44 -35 l0 -35 -70 0 -70 0 0 105 0 105 100 0 100 0 0 25
0 25 -118 0 c-78 0 -122 -4 -130 -12z"/>
<path d="M1630 200 l0 -160 25 0 25 0 0 160 0 160 -25 0 -25 0 0 -160z"/>
<path d="M1736 344 c-3 -9 -6 -81 -6 -160 l0 -144 30 0 c29 0 30 2 30 45 l0
45 70 0 70 0 0 -46 c0 -44 1 -45 28 -42 l27 3 3 135 c4 195 15 180 -127 180
-99 0 -120 -3 -125 -16z m194 -94 l0 -60 -70 0 -70 0 0 60 0 60 70 0 70 0 0
-60z"/>
<path d="M2192 203 l3 -158 28 -3 27 -3 0 65 0 66 70 0 70 0 0 -65 c0 -63 1
-65 25 -65 l25 0 0 160 0 160 -25 0 c-24 0 -25 -2 -25 -65 l0 -65 -70 0 -70 0
0 65 0 65 -30 0 -31 0 3 -157z"/>
<path d="M2496 344 c-3 -9 -6 -81 -6 -160 l0 -144 30 0 c29 0 30 2 30 45 l0
45 70 0 70 0 0 -45 c0 -43 1 -45 30 -45 l30 0 0 144 c0 79 -3 151 -6 160 -9
24 -239 24 -248 0z m194 -94 l0 -60 -70 0 -70 0 0 60 0 60 70 0 70 0 0 -60z"/>
<path d="M2807 354 c-4 -4 -7 -77 -7 -161 l0 -154 28 3 27 3 3 133 3 132 64 0
65 0 0 -135 0 -135 30 0 31 0 -3 158 -3 157 -116 3 c-63 1 -118 -1 -122 -4z"/>
</g>
</svg>
